<?xml version="1.0" encoding="UTF-8"?>
<svg width="1074" height="996" viewBox="0 0 1074 996" xmlns="http://www.w3.org/2000/svg">
  <path id="36" d="M 211.668,410 C 215.054,375.900 228.133,342.546 249.314,314 C 258.290,301.904 282.532,277.713 295.500,267.912 C 355.315,222.707 441.611,202.720 519.427,216.049 C 535.823,218.857 552.398,222.835 554.637,224.499 C 557.888,226.914 555.203,229.385 548.393,230.243 C 517.995,234.075 496.821,240.083 474.732,251.145 C 430.367,273.363 398.012,310.963 387.458,352.567 C 380.857,378.588 382.581,407.632 392.172,432 C 393.363,435.025 394.492,437.695 394.683,437.932 C 394.874,438.169 396.486,436.960 398.265,435.244 C 402.174,431.474 409.738,428.104 415.938,427.370 C 423.444,426.481 423.508,426.188 417.141,421.936 C 407.843,415.727 402.057,407.411 399.940,397.213 C 398.411,389.846 399.360,384.719 404.046,375.028 C 406.427,370.103 408.005,365.390 408.013,363.176 C 408.034,357.221 411.522,342.119 414.878,333.446 C 422.704,313.223 435.814,298.633 453.500,290.465 C 467.356,284.066 479.213,282 502.079,282 C 539.166,282 564.504,291.198 584.197,311.811 C 596.817,325.020 600.710,335.492 601.926,359.500 C 602.557,371.958 603.072,375.333 604.964,379.418 C 606.509,382.753 607.398,386.937 607.725,392.418 C 608.318,402.348 605.994,409.452 599.882,416.396 C 595.453,421.427 595.478,421.468 603.463,422.425 C 611.497,423.388 619.536,428.321 622.568,434.148 C 623.326,435.604 624.421,438.917 625.002,441.509 C 626.363,447.580 624.204,456.719 619.975,462.788 C 617.067,466.961 617.031,467.160 618.604,470.201 C 623.972,480.581 626.837,497.842 624.940,508.366 C 623.446,516.654 618.868,524.888 612.303,531.097 C 610.488,532.814 608.672,534.532 606.857,536.249 C 608.463,536.008 610.069,535.767 611.675,535.526 C 619.659,534.329 638.919,528.375 650.554,523.507 C 671.028,514.941 688.498,503.749 704.295,489.077 C 713.058,480.939 715.675,479.699 718.050,482.560 C 719.132,483.864 718.802,485.465 716.041,492.310 C 696.807,539.997 658.374,580.540 607,607.340 C 577.301,622.832 543.554,633.106 507.500,637.629 C 487.903,640.088 449.333,640.090 431.500,637.635 C 378.332,630.315 335.162,613.403 297,584.945 C 247.347,547.917 218.120,499.348 212.059,443.789 C 211.069,434.711 210.875,417.982 211.668,410 ZM 704.750,496.667 C 683.703,516.478 644.273,535.177 611.084,541.088 C 604.713,542.223 598.493,543.349 597.262,543.591 C 595.936,543.852 594.239,545.553 593.097,547.766 C 587.029,559.521 571.732,566.114 554.152,564.552 C 542.965,563.558 536.646,560.753 529.486,553.603 C 526.125,550.246 522.728,546.533 521.937,545.351 C 520.688,543.483 519.307,543.142 511.369,542.734 C 508.325,542.578 505.281,542.421 502.237,542.265 C 501.855,543.539 501.474,544.813 501.092,546.087 C 498.566,554.516 489.290,560.758 475.940,563.010 C 452.781,566.916 429.880,550.935 429.839,530.838 C 429.832,527.352 430.252,523.382 430.772,522.015 C 431.522,520.045 431.237,518.803 429.391,516.014 C 426.382,511.466 423.244,502.288 421.967,494.293 C 421.032,488.439 420.373,487.267 413.215,478.731 C 390.518,451.662 378.741,422.714 377.271,390.380 C 375.402,349.265 391.670,310.853 424.280,279.383 C 439.008,265.170 450.949,256.774 470.292,247.032 C 488.461,237.881 504.272,232.425 525,228.152 C 532.975,226.508 539.050,225.122 538.500,225.072 C 537.950,225.022 533.225,224.121 528,223.070 C 495.129,216.457 452.104,216.079 417,222.096 C 388.461,226.988 355.145,238.671 329.575,252.755 C 255.791,293.395 212.859,363.741 217.915,435.718 C 221.222,482.801 239.868,522.785 274.977,558.086 C 302.207,585.464 333.423,604.676 373.138,618.500 C 417.467,633.930 469.720,638.211 518.500,630.410 C 558.078,624.080 600.473,607.389 631.500,585.922 C 657.180,568.154 679.801,544.901 694.705,520.947 C 699.539,513.178 708,496.553 708,494.824 C 708,494.155 706.537,494.984 704.750,496.667 ZM 436.333,432.667 C 435.966,432.300 432.029,432.005 427.583,432.012 C 413.531,432.033 404.052,435.789 399.381,443.189 C 398.551,444.505 397.719,445.819 396.889,447.135 C 398.479,449.848 400.071,452.561 401.661,455.274 C 406.214,463.040 415.968,476.121 419.151,478.727 C 420.443,479.785 420.808,478.929 421.810,472.487 C 423.432,462.053 427.511,450.310 432.638,441.313 C 437.588,432.626 437.200,433.534 436.333,432.667 ZM 600.509,385.230 C 599.696,382.332 598.407,378.732 597.644,377.230 C 596.759,375.486 596.060,369.441 595.709,360.500 C 594.857,338.755 590.735,327.136 579.687,315.325 C 559.322,293.555 523.820,283.414 484,287.994 C 444.143,292.578 420.287,317.455 414.665,360.295 C 413.602,368.393 412.569,371.992 409.663,377.725 C 403.071,390.728 404.952,402.115 415.421,412.572 C 422.704,419.847 428.662,422.826 444.043,426.888 C 467.688,433.132 490.687,435.495 520.298,434.723 C 554.068,433.843 576.815,428.176 590.649,417.199 C 599.949,409.819 603.854,397.156 600.509,385.230 ZM 485.250,541.060 C 465.068,538.906 449.062,533.984 440.173,527.199 C 435.145,523.361 434.041,523.900 434.015,530.212 C 433.961,543.381 445.749,555.608 461.825,559.056 C 472.801,561.410 489.911,556.224 494.722,549.084 C 498.896,542.890 498.392,542.463 485.250,541.060 ZM 591.121,527.994 C 590.671,526.615 589.566,524.062 588.666,522.321 C 588.120,521.266 587.575,520.211 587.029,519.156 C 584.941,521.237 582.853,523.319 580.765,525.400 C 570.958,535.175 559.043,539.737 537.259,542.061 C 531.342,542.692 526.414,543.285 526.310,543.378 C 525.770,543.858 532.880,551.979 535.905,554.337 C 543.463,560.228 561.177,562.319 573.087,558.725 C 579.933,556.659 587.147,550.589 589.376,545.019 C 591.336,540.121 592.230,531.395 591.121,527.994 ZM 616.734,436.559 C 615.226,433.898 612.885,431.787 609.527,430.059 C 602.808,426.602 590.757,426.471 580.500,429.745 C 570.102,433.064 570.017,433.170 574.121,437.713 C 582.023,446.460 587.095,455.509 590.937,467.723 C 591.799,470.464 592.661,473.205 593.523,475.946 C 595.265,475.139 597.007,474.332 598.749,473.525 C 614.795,466.091 623.422,448.360 616.734,436.559 ZM 459,457 C 442.337,451.871 436.709,450.022 435.742,449.581 C 434.314,448.930 433.603,449.643 431.949,453.381 C 430.830,455.912 429.033,461.136 427.957,464.991 C 427.305,467.327 426.652,469.664 426,472 C 426,476.916 454.731,486.339 481,490.039 C 493.519,491.802 521.622,491.308 539.203,489.015 C 559.899,486.316 580.699,480.866 586.507,476.619 C 588.339,475.280 588.342,475.051 586.627,468.882 C 585.655,465.386 583.243,459.449 581.267,455.689 C 578.392,450.218 577.307,448.967 575.837,449.426 C 575.225,449.617 574.612,449.809 574,450 C 574,449.333 574,448.667 574,448 C 575.681,446.645 573.912,444.002 570.225,439.994 C 568.280,437.879 566.334,435.764 564.389,433.649 C 561.574,434.198 558.760,434.747 555.945,435.296 C 527.673,440.810 483.795,439.990 452.771,433.369 C 443.655,431.423 443.586,431.457 438.367,440.361 C 435.049,446.022 434.939,446.482 436.604,447.700 C 438.572,449.139 446.247,452.133 453.970,454.475 C 455.647,454.983 457.323,455.492 459,456 C 459,456.333 459,456.667 459,457 ZM 589.342,480.750 C 588.847,477.885 588.059,477.380 586.450,478.895 C 583.196,481.959 562.068,487.549 542,490.655 C 524.180,493.413 486.428,493.203 470.967,490.258 C 457.565,487.705 444.019,483.925 435.500,480.360 C 424.735,475.855 425.618,475.212 426.259,487.094 C 427.015,501.097 428.394,504.963 433.488,507.362 C 439.524,510.204 456.711,515.653 465.117,517.389 C 494.758,523.511 535.685,521.495 577.235,511.865 C 580.147,511.190 583.058,510.515 585.970,509.840 C 586.458,508.197 586.945,506.555 587.433,504.912 C 588.995,499.653 590.129,485.305 589.342,480.750 ZM 584.481,512 C 584.125,512 580.237,512.919 575.841,514.041 C 562.770,517.378 537.709,520.941 518.654,522.171 C 489.910,524.027 466.104,521.010 442.184,512.479 C 436.510,510.455 431.620,509.046 431.319,509.347 C 430.354,510.312 434.836,516.574 439.851,521.264 C 445.374,526.430 449.685,528.810 459,531.836 C 479.837,538.606 527.184,541.056 549.500,536.520 C 564.609,533.449 577.522,525.533 582.830,516.088 C 584.094,513.840 584.837,512 584.481,512 ZM 597.174,483.074 C 596.773,481.740 595.952,480.484 595.350,480.283 C 594.618,480.039 594.096,483.659 593.775,491.209 C 593.433,499.251 592.660,504.342 591.086,508.902 C 589.136,514.552 589.050,515.478 590.355,516.783 C 591.660,518.088 592.161,517.630 594.620,512.881 C 597.105,508.082 597.434,506.310 597.655,496.500 C 597.792,490.450 597.575,484.408 597.174,483.074 ZM 612.123,517.473 C 610.540,517.821 606.458,518.241 603.053,518.407 C 595.552,518.773 593.422,520.349 594.959,524.392 C 595.532,525.898 596,528.649 596,530.506 C 596,532.363 596.470,534.173 597.044,534.528 C 599.413,535.992 615,521.445 615,517.771 C 615,517.260 613.706,517.125 612.123,517.473 ZM 615.567,501.065 C 613.679,499.235 611.600,496.447 610.946,494.869 C 609.969,492.511 609.156,492 606.379,492 C 605.253,492 604.126,492 603,492 C 603,493.804 603,495.607 603,497.411 C 603,500.387 602.106,505.674 601.013,509.161 C 599.920,512.647 599.020,515.838 599.013,516.250 C 598.994,517.343 606.122,517.167 611.876,515.933 C 616.125,515.022 617.007,514.417 617.925,511.784 C 619.674,506.766 619.194,504.580 615.567,501.065 ZM 607.263,479.251 C 607.141,477.501 607.018,475.753 606.896,474.003 C 605.913,474.511 604.931,475.019 603.948,475.527 C 600.657,477.229 600.547,477.787 602.083,484.951 C 603.021,489.325 603.489,490 605.583,490 C 607.598,490 607.969,489.543 607.815,487.250 C 607.713,485.737 607.465,482.138 607.263,479.251 ZM 617.962,487.366 C 616.821,481.600 612.741,471.727 611.307,471.260 C 609.395,470.637 608.634,477.577 609.825,484.765 C 610.899,491.244 615.193,499.908 617.750,500.753 C 619.192,501.230 619.304,494.146 617.962,487.366 Z" fill="#203306" stroke="none" />
  <path id="2" d="M 704.750,496.667 C 706.537,494.984 708,494.155 708,494.824 C 708,496.553 699.539,513.178 694.705,520.947 C 679.801,544.901 657.180,568.154 631.500,585.922 C 600.473,607.389 558.078,624.080 518.500,630.410 C 469.720,638.211 417.467,633.930 373.138,618.500 C 333.423,604.676 302.207,585.464 274.977,558.086 C 239.868,522.785 221.222,482.801 217.915,435.718 C 212.859,363.741 255.791,293.395 329.575,252.755 C 355.145,238.671 388.461,226.988 417,222.096 C 452.104,216.079 495.129,216.457 528,223.070 C 533.225,224.121 537.950,225.022 538.500,225.072 C 539.050,225.122 532.975,226.508 525,228.152 C 504.272,232.425 488.461,237.881 470.292,247.032 C 450.949,256.774 439.008,265.170 424.280,279.383 C 391.670,310.853 375.402,349.265 377.271,390.380 C 378.741,422.714 390.518,451.662 413.215,478.731 C 420.373,487.267 421.032,488.439 421.967,494.293 C 423.244,502.288 426.382,511.466 429.391,516.014 C 431.237,518.803 431.522,520.045 430.772,522.015 C 430.252,523.382 429.832,527.352 429.839,530.838 C 429.880,550.935 452.781,566.916 475.940,563.010 C 489.290,560.758 498.566,554.516 501.092,546.087 C 501.474,544.813 501.855,543.539 502.237,542.265 C 505.281,542.421 508.325,542.578 511.369,542.734 C 519.307,543.142 520.688,543.483 521.937,545.351 C 522.728,546.533 526.125,550.246 529.486,553.603 C 536.646,560.753 542.965,563.558 554.152,564.552 C 571.732,566.114 587.029,559.521 593.097,547.766 C 594.239,545.553 595.936,543.852 597.262,543.591 C 598.493,543.349 604.713,542.223 611.084,541.088 C 644.273,535.177 683.703,516.478 704.750,496.667 ZM 235.047,413.090 C 233.803,422.996 234.543,445.372 236.482,456.500 C 241.749,486.719 256.660,516.130 278.942,540.250 C 285.803,547.677 288.802,548.696 292.811,544.961 C 296.209,541.796 295.481,539.269 289.250,532.607 C 241.720,481.786 234.578,408.970 271.521,351.861 C 274.007,348.017 278.283,341.949 281.021,338.376 C 283.759,334.803 286,331.457 286,330.940 C 286,328.802 281.853,326 278.689,326 C 274.891,326 273.034,327.506 266.739,335.695 C 250.267,357.122 238.453,385.975 235.047,413.090 ZM 295.923,295.923 C 288.889,302.957 296.262,313.159 306.519,310.585 C 310.436,309.602 313,306.436 313,302.582 C 313,297.785 312.176,296.143 308.928,294.463 C 304.215,292.026 299.264,292.582 295.923,295.923 Z" fill="#FFF635" stroke="none" />
  <path id="11" d="M 600.509,385.230 C 603.854,397.156 599.949,409.819 590.649,417.199 C 576.815,428.176 554.068,433.843 520.298,434.723 C 490.687,435.495 467.688,433.132 444.043,426.888 C 428.662,422.826 422.704,419.847 415.421,412.572 C 404.952,402.115 403.071,390.728 409.663,377.725 C 412.569,371.992 413.602,368.393 414.665,360.295 C 420.287,317.455 444.143,292.578 484,287.994 C 523.820,283.414 559.322,293.555 579.687,315.325 C 590.735,327.136 594.857,338.755 595.709,360.500 C 596.060,369.441 596.759,375.486 597.644,377.230 C 598.407,378.732 599.696,382.332 600.509,385.230 ZM 454,373 C 445.234,367.782 440.148,366.838 435.039,369.480 C 430.469,371.843 428,375.719 428,380.531 C 428,384.130 428.531,385.260 431.419,387.795 C 435.801,391.642 441.300,392.628 446.831,390.559 C 448.221,390.039 449.610,389.520 451,389 C 451,389.771 451,390.542 451,391.313 C 451,392.588 452.375,394.944 454.064,396.563 C 456.873,399.256 457.726,399.500 464.314,399.500 C 468.499,399.500 477.136,398.283 484.995,396.585 C 497.765,393.827 498.937,393.735 506.821,394.875 C 511.403,395.538 519.281,397.479 524.326,399.191 C 532.033,401.806 535.098,402.319 543.500,402.398 C 552.659,402.485 553.689,402.300 555.750,400.207 C 558.313,397.604 558.725,392.846 556.544,391.036 C 554.505,389.344 552.725,390.769 553.420,393.537 C 553.791,395.015 553.389,396.468 552.312,397.545 C 549.728,400.129 537.984,398.962 523.345,394.667 C 505.417,389.406 499.729,389.170 481.157,392.910 C 464.018,396.362 462.217,396.511 458.452,394.796 C 456.076,393.714 455.872,393.207 456.421,389.771 C 456.887,386.854 456.673,385.837 454,385 C 454.333,382 454.667,379 455,376 C 455.400,376.333 455.800,376.667 456.200,377 C 458.451,378.876 464.511,378.155 466.701,375.750 C 473.251,368.559 471.993,361 464.246,361 C 459.341,361 455.095,365.972 454,373 ZM 581.439,377.217 C 579.142,373.938 574.708,372 569.500,372 C 557.565,372 551.783,382.462 559.250,390.549 C 564.640,396.387 574.303,396.543 579.961,390.885 C 582.382,388.464 583,386.992 583,383.646 C 583,381.336 582.297,378.443 581.439,377.217 ZM 484.460,303.360 C 483.657,304.507 483,305.920 483,306.500 C 483,308.526 485.944,311.735 488.944,312.977 C 492.894,314.613 498.068,313.592 501.378,310.525 C 504.624,307.516 504.703,305.010 501.643,302.135 C 497.029,297.800 487.899,298.451 484.460,303.360 ZM 493.667,378.667 C 493.300,379.034 493,380.159 493,381.167 C 493,383.252 495.013,383.587 496.800,381.800 C 498.587,380.013 498.252,378 496.167,378 C 495.159,378 494.034,378.300 493.667,378.667 ZM 514.250,378.180 C 511.777,377.829 511.204,379.804 513.200,381.800 C 515.196,383.796 517.171,383.223 516.820,380.750 C 516.615,379.304 515.696,378.385 514.250,378.180 ZM 520.247,309.703 C 519.651,310.591 526.120,312.292 544.970,316.203 C 559.011,319.116 570.275,321.539 570,321.586 C 569.725,321.633 566.733,318.850 563.352,315.402 C 559.740,311.718 554.690,307.863 551.109,306.055 C 543.366,302.146 528.186,297.763 523.836,298.180 C 522.724,298.287 521.612,298.393 520.500,298.500 C 520.592,300.167 520.685,301.833 520.777,303.500 C 520.929,306.250 520.691,309.041 520.247,309.703 ZM 537.829,365.655 C 535.422,367.834 535.514,371.477 538.082,375.633 C 542.211,382.313 547.857,383.910 551.948,379.555 C 554.733,376.590 554.314,374.113 550.022,368.189 C 547.410,364.584 546.476,364 543.322,364 C 541.306,364 538.835,364.745 537.829,365.655 Z" fill="#98D338" stroke="none" />
  <path id="31" d="M 235.047,413.090 C 238.453,385.975 250.267,357.122 266.739,335.695 C 273.034,327.506 274.891,326 278.689,326 C 281.853,326 286,328.802 286,330.940 C 286,331.457 283.759,334.803 281.021,338.376 C 278.283,341.949 274.007,348.017 271.521,351.861 C 234.578,408.970 241.720,481.786 289.250,532.607 C 295.481,539.269 296.209,541.796 292.811,544.961 C 288.802,548.696 285.803,547.677 278.942,540.250 C 256.660,516.130 241.749,486.719 236.482,456.500 C 234.543,445.372 233.803,422.996 235.047,413.090 Z" fill="#FFFFFF" stroke="none" />
  <path id="19" d="M 581.583,259.113 C 585.280,256.205 593.323,253.410 602.027,252.009 C 604.536,251.605 607.044,251.202 609.553,250.798 C 610.462,248.231 611.372,245.665 612.281,243.098 C 615.674,233.518 620.692,225.017 624.069,223.129 C 625.745,222.192 627.657,221.945 629.569,222.420 C 633.285,223.343 641.294,231.554 646.830,240.119 C 648.256,242.325 649.683,244.532 651.109,246.738 C 654.674,247.138 658.240,247.538 661.805,247.938 C 672.835,249.175 680.573,251.724 681.626,254.467 C 681.957,255.330 681.671,257.383 680.989,259.028 C 679.946,261.546 677.519,263.926 666.592,273.150 C 666.074,273.588 667.303,277.460 669.456,282.169 C 675.932,296.336 675.430,304.868 668.024,306.495 C 664.370,307.297 654.164,304.865 642.849,300.495 C 639.799,299.317 636.750,298.140 633.700,296.962 C 631.489,299.097 629.278,301.230 627.067,303.365 C 619.202,310.958 611.605,316 608.027,316 C 601.256,316 598.828,310.574 598.634,295.013 C 598.589,291.428 598.545,287.845 598.500,284.260 C 596.833,283.197 595.167,282.134 593.500,281.071 C 579.894,272.393 575.349,264.017 581.583,259.113 ZM 586.250,262.217 C 585.562,262.782 585,263.942 585,264.794 C 585,267.037 592.797,274.165 599.353,277.916 C 601.235,278.993 603.118,280.070 605,281.147 C 605,285.101 605,289.054 605,293.008 C 605,305.945 605.913,310 608.827,310 C 610.852,310 626.366,297.093 627.316,294.618 C 627.633,293.792 628.972,292.409 630.291,291.545 C 632.529,290.079 633.087,290.149 638.595,292.591 C 647.258,296.432 661.723,301 665.226,301 C 666.241,301 667.257,301 668.272,301 C 668.060,299.456 667.849,297.912 667.637,296.368 C 667.288,293.820 664.977,287.460 662.501,282.234 C 660.025,277.008 658,272.644 658,272.537 C 658,272.430 661.392,269.684 665.538,266.437 C 669.684,263.190 673.733,259.531 674.536,258.305 C 675.936,256.169 675.841,256.035 672.248,255.089 C 670.187,254.546 663.657,253.567 657.738,252.913 C 654.151,252.516 650.564,252.120 646.977,251.723 C 645.764,249.726 644.550,247.729 643.337,245.732 C 637.991,236.932 630.256,228 627.980,228 C 625.652,228 622.090,234.487 617.547,247 C 616.518,249.833 615.490,252.666 614.461,255.499 C 611.888,255.891 609.314,256.284 606.741,256.676 C 598.012,258.006 588.117,260.682 586.250,262.217 Z" fill="#203306" stroke="none" />
  <path id="12" d="M 426,472 C 426.652,469.664 427.305,467.327 427.957,464.991 C 429.033,461.136 430.830,455.912 431.949,453.381 C 433.603,449.643 434.314,448.930 435.742,449.581 C 436.709,450.022 442.337,451.871 459,457 C 460.428,457.319 461.855,457.637 463.283,457.956 C 465.638,458.482 473.354,459.382 480.428,459.956 C 514.435,462.717 548.174,459.127 574,450 C 574.612,449.809 575.225,449.617 575.837,449.426 C 577.307,448.967 578.392,450.218 581.267,455.689 C 583.243,459.449 585.655,465.386 586.627,468.882 C 588.342,475.051 588.339,475.280 586.507,476.619 C 580.699,480.866 559.899,486.316 539.203,489.015 C 521.622,491.308 493.519,491.802 481,490.039 C 454.731,486.339 426,476.916 426,472 Z" fill="#CEF781" stroke="none" />
  <path id="12" d="M 589.342,480.750 C 590.129,485.305 588.995,499.653 587.433,504.912 C 586.945,506.555 586.458,508.197 585.970,509.840 C 583.058,510.515 580.147,511.190 577.235,511.865 C 535.685,521.495 494.758,523.511 465.117,517.389 C 456.711,515.653 439.524,510.204 433.488,507.362 C 428.394,504.963 427.015,501.097 426.259,487.094 C 425.618,475.212 424.735,475.855 435.500,480.360 C 444.019,483.925 457.565,487.705 470.967,490.258 C 486.428,493.203 524.180,493.413 542,490.655 C 562.068,487.549 583.196,481.959 586.450,478.895 C 588.059,477.380 588.847,477.885 589.342,480.750 Z" fill="#CEF781" stroke="none" />
  <path id="20" d="M 586.250,262.217 C 588.117,260.682 598.012,258.006 606.741,256.676 C 609.314,256.284 611.888,255.891 614.461,255.499 C 615.490,252.666 616.518,249.833 617.547,247 C 622.090,234.487 625.652,228 627.980,228 C 630.256,228 637.991,236.932 643.337,245.732 C 644.550,247.729 645.764,249.726 646.977,251.723 C 650.564,252.120 654.151,252.516 657.738,252.913 C 663.657,253.567 670.187,254.546 672.248,255.089 C 675.841,256.035 675.936,256.169 674.536,258.305 C 673.733,259.531 669.684,263.190 665.538,266.437 C 661.392,269.684 658,272.430 658,272.537 C 658,272.644 660.025,277.008 662.501,282.234 C 664.977,287.460 667.288,293.820 667.637,296.368 C 667.849,297.912 668.060,299.456 668.272,301 C 667.257,301 666.241,301 665.226,301 C 661.723,301 647.258,296.432 638.595,292.591 C 633.087,290.149 632.529,290.079 630.291,291.545 C 628.972,292.409 627.633,293.792 627.316,294.618 C 626.366,297.093 610.852,310 608.827,310 C 605.913,310 605,305.945 605,293.008 C 605,289.054 605,285.101 605,281.147 C 603.118,280.070 601.235,278.993 599.353,277.916 C 592.797,274.165 585,267.037 585,264.794 C 585,263.942 585.562,262.782 586.250,262.217 ZM 604.667,262.667 C 603.072,264.262 604.162,267.112 606.750,268.111 C 610.122,269.413 620.288,268.419 624.177,266.408 C 627.601,264.638 630.426,260.553 629.641,258.508 C 628.753,256.195 624.128,256.715 620.818,259.500 C 618.342,261.584 616.805,262 611.590,262 C 608.149,262 605.034,262.300 604.667,262.667 ZM 626.223,239.557 C 621.595,242.799 624.434,249 630.548,249 C 634.908,249 637.546,245.566 636.103,241.771 C 634.598,237.813 630.140,236.814 626.223,239.557 Z" fill="#A7FFF4" stroke="none" />
  <path id="12" d="M 574,448 C 572.750,448.522 571.500,449.045 570.250,449.567 C 565.272,451.648 548.689,455.479 537.500,457.133 C 522.405,459.365 479.295,458.743 459,456 C 457.323,455.492 455.647,454.983 453.970,454.475 C 446.247,452.133 438.572,449.139 436.604,447.700 C 434.939,446.482 435.049,446.022 438.367,440.361 C 443.586,431.457 443.655,431.423 452.771,433.369 C 483.795,439.990 527.673,440.810 555.945,435.296 C 558.760,434.747 561.574,434.198 564.389,433.649 C 566.334,435.764 568.280,437.879 570.225,439.994 C 573.912,444.002 575.681,446.645 574,448 Z" fill="#CEF781" stroke="none" />
  <path id="19" d="M 629.250,369.989 C 631.610,368.550 634.286,368.007 639.023,368.004 C 645.463,368 645.569,367.955 647.449,364.465 C 648.496,362.521 651.288,359.146 653.654,356.965 C 662.311,348.985 669.734,353.080 672.398,367.303 C 672.790,369.394 673.648,371.276 674.305,371.484 C 674.962,371.692 677.983,372.551 681.019,373.392 C 694.888,377.235 694.262,386.240 679.702,392.307 C 676.078,393.817 675.061,394.697 675.545,395.903 C 675.898,396.781 676.417,399.975 676.699,403 C 677.130,407.620 676.864,408.940 675.034,411.250 C 671.248,416.029 663.186,414.564 654.614,407.540 C 653.178,406.364 651.743,405.187 650.307,404.011 C 648.339,404.375 646.372,404.739 644.404,405.103 C 637.895,406.307 631.714,405.837 629.461,403.967 C 627.119,402.023 627.747,396.792 630.924,391.782 C 633.782,387.276 633.804,387.133 631.949,385.454 C 629.702,383.421 626,376.087 626,373.670 C 626,372.736 627.463,371.079 629.250,369.989 ZM 634.958,373.513 C 631.639,374.566 631.990,375.407 640.344,386.409 C 640.860,387.089 639.779,389.613 637.560,392.910 C 635.565,395.874 634.108,398.795 634.322,399.400 C 634.773,400.676 640.386,400.444 647.323,398.864 C 651.841,397.835 652.315,397.923 654.823,400.255 C 659.381,404.493 666.214,409 668.083,409 C 670.827,409 671.268,405.699 669.479,398.565 C 667.851,392.075 668.053,390 670.309,389.999 C 672.227,389.998 683.686,384.317 684.532,382.948 C 685.977,380.609 682.583,379.160 669.250,376.424 C 667.853,376.137 667,375.230 667,374.030 C 667,369.933 664.757,361.921 663.005,359.762 C 662.393,359.008 661.782,358.254 661.170,357.500 C 660.302,358.314 659.434,359.128 658.566,359.942 C 657.134,361.285 654.535,364.660 652.791,367.442 C 651.047,370.224 649.482,372.686 649.313,372.914 C 649.144,373.142 646.285,373.230 642.960,373.110 C 639.635,372.990 636.035,373.171 634.958,373.513 Z" fill="#203306" stroke="none" />
  <path id="12" d="M 584.481,512 C 584.837,512 584.094,513.840 582.830,516.088 C 577.522,525.533 564.609,533.449 549.500,536.520 C 527.184,541.056 479.837,538.606 459,531.836 C 449.685,528.810 445.374,526.430 439.851,521.264 C 434.836,516.574 430.354,510.312 431.319,509.347 C 431.620,509.046 436.510,510.455 442.184,512.479 C 466.104,521.010 489.910,524.027 518.654,522.171 C 537.709,520.941 562.770,517.378 575.841,514.041 C 580.237,512.919 584.125,512 584.481,512 Z" fill="#CEF781" stroke="none" />
  <path id="11" d="M 591.121,527.994 C 592.230,531.395 591.336,540.121 589.376,545.019 C 587.147,550.589 579.933,556.659 573.087,558.725 C 561.177,562.319 543.463,560.228 535.905,554.337 C 532.880,551.979 525.770,543.858 526.310,543.378 C 526.414,543.285 531.342,542.692 537.259,542.061 C 559.043,539.737 570.958,535.175 580.765,525.400 C 582.853,523.319 584.941,521.237 587.029,519.156 C 587.575,520.211 588.120,521.266 588.666,522.321 C 589.566,524.062 590.671,526.615 591.121,527.994 Z" fill="#98D338" stroke="none" />
  <path id="20" d="M 634.958,373.513 C 636.035,373.171 639.635,372.990 642.960,373.110 C 646.285,373.230 649.144,373.142 649.313,372.914 C 649.482,372.686 651.047,370.224 652.791,367.442 C 654.535,364.660 657.134,361.285 658.566,359.942 C 659.434,359.128 660.302,358.314 661.170,357.500 C 661.782,358.254 662.393,359.008 663.005,359.762 C 664.757,361.921 667,369.933 667,374.030 C 667,375.230 667.853,376.137 669.250,376.424 C 682.583,379.160 685.977,380.609 684.532,382.948 C 683.686,384.317 672.227,389.998 670.309,389.999 C 668.053,390 667.851,392.075 669.479,398.565 C 671.268,405.699 670.827,409 668.083,409 C 666.214,409 659.381,404.493 654.823,400.255 C 652.315,397.923 651.841,397.835 647.323,398.864 C 640.386,400.444 634.773,400.676 634.322,399.400 C 634.108,398.795 635.565,395.874 637.560,392.910 C 639.779,389.613 640.860,387.089 640.344,386.409 C 631.990,375.407 631.639,374.566 634.958,373.513 ZM 639.632,376.701 C 639.246,377.087 639.064,378.099 639.228,378.951 C 639.442,380.063 641.355,380.708 646.013,381.238 C 649.581,381.644 653.062,381.770 653.750,381.519 C 655.906,380.732 655.113,377.993 652.435,376.975 C 649.478,375.851 640.671,375.662 639.632,376.701 ZM 656.200,366.200 C 654.379,368.021 654.763,370.803 657,372 C 657.667,372.357 658.333,372.713 659,373.070 C 659.667,372.713 660.333,372.357 661,372 C 662.100,371.411 663,370.136 663,369.165 C 663,365.558 658.712,363.688 656.200,366.200 Z" fill="#A7FFF4" stroke="none" />
  <path id="11" d="M 616.734,436.559 C 623.422,448.360 614.795,466.091 598.749,473.525 C 597.007,474.332 595.265,475.139 593.523,475.946 C 592.661,473.205 591.799,470.464 590.937,467.723 C 587.095,455.509 582.023,446.460 574.121,437.713 C 570.017,433.170 570.102,433.064 580.500,429.745 C 590.757,426.471 602.808,426.602 609.527,430.059 C 612.885,431.787 615.226,433.898 616.734,436.559 Z" fill="#98D338" stroke="none" />
  <path id="11" d="M 436.333,432.667 C 437.200,433.534 437.588,432.626 432.638,441.313 C 427.511,450.310 423.432,462.053 421.810,472.487 C 420.808,478.929 420.443,479.785 419.151,478.727 C 415.968,476.121 406.214,463.040 401.661,455.274 C 400.071,452.561 398.479,449.848 396.889,447.135 C 397.719,445.819 398.551,444.505 399.381,443.189 C 404.052,435.789 413.531,432.033 427.583,432.012 C 432.029,432.005 435.966,432.300 436.333,432.667 Z" fill="#98D338" stroke="none" />
  <path id="11" d="M 485.250,541.060 C 498.392,542.463 498.896,542.890 494.722,549.084 C 489.911,556.224 472.801,561.410 461.825,559.056 C 445.749,555.608 433.961,543.381 434.015,530.212 C 434.041,523.900 435.145,523.361 440.173,527.199 C 449.062,533.984 465.068,538.906 485.250,541.060 Z" fill="#98D338" stroke="none" />
  <path id="33" d="M 520.247,309.703 C 520.691,309.041 520.929,306.250 520.777,303.500 C 520.685,301.833 520.592,300.167 520.500,298.500 C 521.612,298.393 522.724,298.287 523.836,298.180 C 528.186,297.763 543.366,302.146 551.109,306.055 C 554.690,307.863 559.740,311.718 563.352,315.402 C 566.733,318.850 569.725,321.633 570,321.586 C 570.275,321.539 559.011,319.116 544.970,316.203 C 526.120,312.292 519.651,310.591 520.247,309.703 Z" fill="#B8EB5C" stroke="none" />
  <path id="36" d="M 451,389 C 452,387.667 453,386.333 454,385 C 456.673,385.837 456.887,386.854 456.421,389.771 C 455.872,393.207 456.076,393.714 458.452,394.796 C 462.217,396.511 464.018,396.362 481.157,392.910 C 499.729,389.170 505.417,389.406 523.345,394.667 C 537.984,398.962 549.728,400.129 552.312,397.545 C 553.389,396.468 553.791,395.015 553.420,393.537 C 552.725,390.769 554.505,389.344 556.544,391.036 C 558.725,392.846 558.313,397.604 555.750,400.207 C 553.689,402.300 552.659,402.485 543.500,402.398 C 535.098,402.319 532.033,401.806 524.326,399.191 C 519.281,397.479 511.403,395.538 506.821,394.875 C 498.937,393.735 497.765,393.827 484.995,396.585 C 477.136,398.283 468.499,399.500 464.314,399.500 C 457.726,399.500 456.873,399.256 454.064,396.563 C 452.375,394.944 451,392.588 451,391.313 C 451,390.542 451,389.771 451,389 Z" fill="#203306" stroke="none" />
  <path id="8" d="M 451,389 C 449.610,389.520 448.221,390.039 446.831,390.559 C 441.300,392.628 435.801,391.642 431.419,387.795 C 428.531,385.260 428,384.130 428,380.531 C 428,375.719 430.469,371.843 435.039,369.480 C 440.148,366.838 445.234,367.782 454,373 C 454.333,374 454.667,375 455,376 C 454.667,379 454.333,382 454,385 C 453,386.333 452,387.667 451,389 Z" fill="#FE7374" stroke="none" />
  <path id="22" d="M 615.567,501.065 C 619.194,504.580 619.674,506.766 617.925,511.784 C 617.007,514.417 616.125,515.022 611.876,515.933 C 606.122,517.167 598.994,517.343 599.013,516.250 C 599.020,515.838 599.920,512.647 601.013,509.161 C 602.106,505.674 603,500.387 603,497.411 C 603,495.607 603,493.804 603,492 C 604.126,492 605.253,492 606.379,492 C 609.156,492 609.969,492.511 610.946,494.869 C 611.600,496.447 613.679,499.235 615.567,501.065 Z" fill="#6E992C" stroke="none" />
  <path id="8" d="M 581.439,377.217 C 582.297,378.443 583,381.336 583,383.646 C 583,386.992 582.382,388.464 579.961,390.885 C 574.303,396.543 564.640,396.387 559.250,390.549 C 551.783,382.462 557.565,372 569.500,372 C 574.708,372 579.142,373.938 581.439,377.217 ZM 566.250,377.989 C 562.969,379.989 562.230,381.407 563.923,382.453 C 565.204,383.245 572.166,378.997 571.730,377.689 C 571.119,375.857 569.612,375.939 566.250,377.989 Z" fill="#FE7374" stroke="none" />
  <path id="36" d="M 537.829,365.655 C 538.835,364.745 541.306,364 543.322,364 C 546.476,364 547.410,364.584 550.022,368.189 C 554.314,374.113 554.733,376.590 551.948,379.555 C 547.857,383.910 542.211,382.313 538.082,375.633 C 535.514,371.477 535.422,367.834 537.829,365.655 Z" fill="#203306" stroke="none" />
  <path id="33" d="M 484.460,303.360 C 487.899,298.451 497.029,297.800 501.643,302.135 C 504.703,305.010 504.624,307.516 501.378,310.525 C 498.068,313.592 492.894,314.613 488.944,312.977 C 485.944,311.735 483,308.526 483,306.500 C 483,305.920 483.657,304.507 484.460,303.360 Z" fill="#B8EB5C" stroke="none" />
  <path id="31" d="M 295.923,295.923 C 299.264,292.582 304.215,292.026 308.928,294.463 C 312.176,296.143 313,297.785 313,302.582 C 313,306.436 310.436,309.602 306.519,310.585 C 296.262,313.159 288.889,302.957 295.923,295.923 Z" fill="#FFFFFF" stroke="none" />
  <path id="22" d="M 612.123,517.473 C 613.706,517.125 615,517.260 615,517.771 C 615,521.445 599.413,535.992 597.044,534.528 C 596.470,534.173 596,532.363 596,530.506 C 596,528.649 595.532,525.898 594.959,524.392 C 593.422,520.349 595.552,518.773 603.053,518.407 C 606.458,518.241 610.540,517.821 612.123,517.473 Z" fill="#6E992C" stroke="none" />
  <path id="31" d="M 604.667,262.667 C 605.034,262.300 608.149,262 611.590,262 C 616.805,262 618.342,261.584 620.818,259.500 C 624.128,256.715 628.753,256.195 629.641,258.508 C 630.426,260.553 627.601,264.638 624.177,266.408 C 620.288,268.419 610.122,269.413 606.750,268.111 C 604.162,267.112 603.072,264.262 604.667,262.667 Z" fill="#FFFFFF" stroke="none" />
  <path id="21" d="M 597.174,483.074 C 597.575,484.408 597.792,490.450 597.655,496.500 C 597.434,506.310 597.105,508.082 594.620,512.881 C 592.161,517.630 591.660,518.088 590.355,516.783 C 589.050,515.478 589.136,514.552 591.086,508.902 C 592.660,504.342 593.433,499.251 593.775,491.209 C 594.096,483.659 594.618,480.039 595.350,480.283 C 595.952,480.484 596.773,481.740 597.174,483.074 Z" fill="#FAFE57" stroke="none" />
  <path id="36" d="M 455,376 C 454.667,375 454.333,374 454,373 C 455.095,365.972 459.341,361 464.246,361 C 471.993,361 473.251,368.559 466.701,375.750 C 464.511,378.155 458.451,378.876 456.200,377 C 455.800,376.667 455.400,376.333 455,376 Z" fill="#203306" stroke="none" />
  <path id="22" d="M 617.962,487.366 C 619.304,494.146 619.192,501.230 617.750,500.753 C 615.193,499.908 610.899,491.244 609.825,484.765 C 608.634,477.577 609.395,470.637 611.307,471.260 C 612.741,471.727 616.821,481.600 617.962,487.366 Z" fill="#6E992C" stroke="none" />
  <path id="22" d="M 607.263,479.251 C 607.465,482.138 607.713,485.737 607.815,487.250 C 607.969,489.543 607.598,490 605.583,490 C 603.489,490 603.021,489.325 602.083,484.951 C 600.547,477.787 600.657,477.229 603.948,475.527 C 604.931,475.019 605.913,474.511 606.896,474.003 C 607.018,475.753 607.141,477.501 607.263,479.251 Z" fill="#6E992C" stroke="none" />
  <path id="31" d="M 639.632,376.701 C 640.671,375.662 649.478,375.851 652.435,376.975 C 655.113,377.993 655.906,380.732 653.750,381.519 C 653.062,381.770 649.581,381.644 646.013,381.238 C 641.355,380.708 639.442,380.063 639.228,378.951 C 639.064,378.099 639.246,377.087 639.632,376.701 Z" fill="#FFFFFF" stroke="none" />
  <path id="31" d="M 626.223,239.557 C 630.140,236.814 634.598,237.813 636.103,241.771 C 637.546,245.566 634.908,249 630.548,249 C 624.434,249 621.595,242.799 626.223,239.557 Z" fill="#FFFFFF" stroke="none" />
  <path id="38" d="M 574,450 C 548.174,459.127 514.435,462.717 480.428,459.956 C 473.354,459.382 465.638,458.482 463.283,457.956 C 461.855,457.637 460.428,457.319 459,457 C 459,456.667 459,456.333 459,456 C 479.295,458.743 522.405,459.365 537.500,457.133 C 548.689,455.479 565.272,451.648 570.250,449.567 C 571.500,449.045 572.750,448.522 574,448 C 574,448.667 574,449.333 574,450 Z" fill="#314612" stroke="none" />
  <path id="31" d="M 656.200,366.200 C 658.712,363.688 663,365.558 663,369.165 C 663,370.136 662.100,371.411 661,372 C 660.333,372.357 659.667,372.713 659,373.070 C 658.333,372.713 657.667,372.357 657,372 C 654.763,370.803 654.379,368.021 656.200,366.200 Z" fill="#FFFFFF" stroke="none" />
  <path id="40" d="M 566.250,377.989 C 569.612,375.939 571.119,375.857 571.730,377.689 C 572.166,378.997 565.204,383.245 563.923,382.453 C 562.230,381.407 562.969,379.989 566.250,377.989 Z" fill="#FFB2B4" stroke="none" />
  <path id="41" d="M 493.667,378.667 C 494.034,378.300 495.159,378 496.167,378 C 498.252,378 498.587,380.013 496.800,381.800 C 495.013,383.587 493,383.252 493,381.167 C 493,380.159 493.300,379.034 493.667,378.667 Z" fill="#2A400A" stroke="none" />
  <path id="42" d="M 514.250,378.180 C 515.696,378.385 516.615,379.304 516.820,380.750 C 517.171,383.223 515.196,383.796 513.200,381.800 C 511.204,379.804 511.777,377.829 514.250,378.180 Z" fill="#294009" stroke="none" />
</svg>
